<svg width="30" height="30" viewBox="0 0 30 30" fill="none" xmlns="http://www.w3.org/2000/svg">
<path d="M7.78906 29.7393C11.6551 29.7393 14.7891 26.7083 14.7891 22.9693C14.7891 19.2303 11.6551 16.1993 7.78906 16.1993C3.92307 16.1993 0.789062 19.2303 0.789062 22.9693C0.789062 26.7083 3.92307 29.7393 7.78906 29.7393Z" fill="#D9DBE4"/>
<path d="M15.7891 21.9993C19.6551 21.9993 22.7891 18.9682 22.7891 15.2293C22.7891 11.4903 19.6551 8.45929 15.7891 8.45929C11.9231 8.45929 8.78906 11.4903 8.78906 15.2293C8.78906 18.9682 11.9231 21.9993 15.7891 21.9993Z" fill="#50EFF5"/>
<path d="M22.7891 14.2693C26.6551 14.2693 29.7891 11.2382 29.7891 7.49925C29.7891 3.76028 26.6551 0.729248 22.7891 0.729248C18.9231 0.729248 15.7891 3.76028 15.7891 7.49925C15.7891 11.2382 18.9231 14.2693 22.7891 14.2693Z" fill="#1436E5"/>
</svg>
